<mxfile host="app.diagrams.net" modified="2023-05-08T12:46:58.066Z" agent="Mozilla/5.0 (Windows NT 10.0; Win64; x64) AppleWebKit/537.36 (KHTML, like Gecko) Chrome/112.0.0.0 Safari/537.36" etag="qMXcfblApV3iQqpcpusU" version="21.2.7" type="github">
  <diagram id="R2lEEEUBdFMjLlhIrx00" name="Page-1">
    <mxGraphModel dx="1050" dy="515" grid="1" gridSize="10" guides="1" tooltips="1" connect="1" arrows="1" fold="1" page="1" pageScale="1" pageWidth="850" pageHeight="1100" math="0" shadow="0" extFonts="Permanent Marker^https://fonts.googleapis.com/css?family=Permanent+Marker">
      <root>
        <mxCell id="0" />
        <mxCell id="1" parent="0" />
        <mxCell id="k4-YEysEqhTJ9saLIVEX-16" value="users" style="whiteSpace=wrap;html=1;align=center;" parent="1" vertex="1">
          <mxGeometry x="60" y="80" width="100" height="40" as="geometry" />
        </mxCell>
        <mxCell id="k4-YEysEqhTJ9saLIVEX-17" value="id" style="ellipse;whiteSpace=wrap;html=1;align=center;fontStyle=4;" parent="1" vertex="1">
          <mxGeometry x="10" y="170" width="100" height="40" as="geometry" />
        </mxCell>
        <mxCell id="k4-YEysEqhTJ9saLIVEX-18" value="username" style="ellipse;whiteSpace=wrap;html=1;align=center;" parent="1" vertex="1">
          <mxGeometry x="260" y="20" width="100" height="40" as="geometry" />
        </mxCell>
        <mxCell id="k4-YEysEqhTJ9saLIVEX-19" value="password" style="ellipse;whiteSpace=wrap;html=1;align=center;" parent="1" vertex="1">
          <mxGeometry x="130" y="20" width="100" height="40" as="geometry" />
        </mxCell>
        <mxCell id="k4-YEysEqhTJ9saLIVEX-21" value="reg no" style="ellipse;whiteSpace=wrap;html=1;align=center;" parent="1" vertex="1">
          <mxGeometry x="240" y="150" width="100" height="40" as="geometry" />
        </mxCell>
        <mxCell id="k4-YEysEqhTJ9saLIVEX-22" value="role" style="ellipse;whiteSpace=wrap;html=1;align=center;" parent="1" vertex="1">
          <mxGeometry y="20" width="100" height="40" as="geometry" />
        </mxCell>
        <mxCell id="k4-YEysEqhTJ9saLIVEX-23" value="created at" style="ellipse;whiteSpace=wrap;html=1;align=center;" parent="1" vertex="1">
          <mxGeometry x="130" y="160" width="100" height="40" as="geometry" />
        </mxCell>
        <mxCell id="k4-YEysEqhTJ9saLIVEX-25" value="" style="endArrow=none;html=1;rounded=0;" parent="1" edge="1">
          <mxGeometry width="50" height="50" relative="1" as="geometry">
            <mxPoint x="100" y="80" as="sourcePoint" />
            <mxPoint x="90" y="50" as="targetPoint" />
          </mxGeometry>
        </mxCell>
        <mxCell id="k4-YEysEqhTJ9saLIVEX-26" value="" style="endArrow=none;html=1;rounded=0;exitX=0.272;exitY=0.065;exitDx=0;exitDy=0;exitPerimeter=0;" parent="1" source="k4-YEysEqhTJ9saLIVEX-23" edge="1">
          <mxGeometry width="50" height="50" relative="1" as="geometry">
            <mxPoint x="150" y="150" as="sourcePoint" />
            <mxPoint x="140" y="120" as="targetPoint" />
          </mxGeometry>
        </mxCell>
        <mxCell id="k4-YEysEqhTJ9saLIVEX-27" value="" style="endArrow=none;html=1;rounded=0;exitX=0.5;exitY=0;exitDx=0;exitDy=0;" parent="1" source="k4-YEysEqhTJ9saLIVEX-17" edge="1">
          <mxGeometry width="50" height="50" relative="1" as="geometry">
            <mxPoint x="60" y="160" as="sourcePoint" />
            <mxPoint x="60" y="120" as="targetPoint" />
          </mxGeometry>
        </mxCell>
        <mxCell id="k4-YEysEqhTJ9saLIVEX-28" value="" style="endArrow=none;html=1;rounded=0;" parent="1" edge="1">
          <mxGeometry width="50" height="50" relative="1" as="geometry">
            <mxPoint x="120" y="80" as="sourcePoint" />
            <mxPoint x="140" y="50" as="targetPoint" />
          </mxGeometry>
        </mxCell>
        <mxCell id="k4-YEysEqhTJ9saLIVEX-30" value="" style="endArrow=none;html=1;rounded=0;entryX=1;entryY=0.75;entryDx=0;entryDy=0;" parent="1" target="k4-YEysEqhTJ9saLIVEX-16" edge="1">
          <mxGeometry width="50" height="50" relative="1" as="geometry">
            <mxPoint x="275" y="150" as="sourcePoint" />
            <mxPoint x="240" y="140" as="targetPoint" />
            <Array as="points">
              <mxPoint x="275" y="150" />
            </Array>
          </mxGeometry>
        </mxCell>
        <mxCell id="k4-YEysEqhTJ9saLIVEX-32" value="" style="endArrow=none;html=1;rounded=0;entryX=1;entryY=0.5;entryDx=0;entryDy=0;exitX=0.06;exitY=0.825;exitDx=0;exitDy=0;exitPerimeter=0;" parent="1" source="k4-YEysEqhTJ9saLIVEX-18" target="k4-YEysEqhTJ9saLIVEX-16" edge="1">
          <mxGeometry width="50" height="50" relative="1" as="geometry">
            <mxPoint x="210" y="80" as="sourcePoint" />
            <mxPoint x="180" y="90" as="targetPoint" />
            <Array as="points" />
          </mxGeometry>
        </mxCell>
        <mxCell id="k4-YEysEqhTJ9saLIVEX-33" value="students" style="whiteSpace=wrap;html=1;align=center;" parent="1" vertex="1">
          <mxGeometry x="670" y="250" width="100" height="40" as="geometry" />
        </mxCell>
        <mxCell id="k4-YEysEqhTJ9saLIVEX-34" value="student_Reg_no" style="ellipse;whiteSpace=wrap;html=1;align=center;fontStyle=4;" parent="1" vertex="1">
          <mxGeometry x="620" y="340" width="100" height="40" as="geometry" />
        </mxCell>
        <mxCell id="k4-YEysEqhTJ9saLIVEX-35" value="name" style="ellipse;whiteSpace=wrap;html=1;align=center;" parent="1" vertex="1">
          <mxGeometry x="870" y="190" width="100" height="40" as="geometry" />
        </mxCell>
        <mxCell id="k4-YEysEqhTJ9saLIVEX-39" value="user id" style="ellipse;whiteSpace=wrap;html=1;align=center;" parent="1" vertex="1">
          <mxGeometry x="740" y="330" width="100" height="40" as="geometry" />
        </mxCell>
        <mxCell id="k4-YEysEqhTJ9saLIVEX-40" value="" style="endArrow=none;html=1;rounded=0;" parent="1" edge="1">
          <mxGeometry width="50" height="50" relative="1" as="geometry">
            <mxPoint x="710" y="250" as="sourcePoint" />
            <mxPoint x="700" y="220" as="targetPoint" />
          </mxGeometry>
        </mxCell>
        <mxCell id="k4-YEysEqhTJ9saLIVEX-41" value="" style="endArrow=none;html=1;rounded=0;exitX=0.272;exitY=0.065;exitDx=0;exitDy=0;exitPerimeter=0;" parent="1" source="k4-YEysEqhTJ9saLIVEX-39" edge="1">
          <mxGeometry width="50" height="50" relative="1" as="geometry">
            <mxPoint x="760" y="320" as="sourcePoint" />
            <mxPoint x="750" y="290" as="targetPoint" />
          </mxGeometry>
        </mxCell>
        <mxCell id="k4-YEysEqhTJ9saLIVEX-42" value="" style="endArrow=none;html=1;rounded=0;exitX=0.5;exitY=0;exitDx=0;exitDy=0;" parent="1" source="k4-YEysEqhTJ9saLIVEX-34" edge="1">
          <mxGeometry width="50" height="50" relative="1" as="geometry">
            <mxPoint x="670" y="330" as="sourcePoint" />
            <mxPoint x="670" y="290" as="targetPoint" />
          </mxGeometry>
        </mxCell>
        <mxCell id="k4-YEysEqhTJ9saLIVEX-43" value="" style="endArrow=none;html=1;rounded=0;" parent="1" edge="1">
          <mxGeometry width="50" height="50" relative="1" as="geometry">
            <mxPoint x="730" y="250" as="sourcePoint" />
            <mxPoint x="750" y="220" as="targetPoint" />
          </mxGeometry>
        </mxCell>
        <mxCell id="k4-YEysEqhTJ9saLIVEX-45" value="" style="endArrow=none;html=1;rounded=0;entryX=1;entryY=0.5;entryDx=0;entryDy=0;exitX=0.06;exitY=0.825;exitDx=0;exitDy=0;exitPerimeter=0;" parent="1" source="k4-YEysEqhTJ9saLIVEX-35" target="k4-YEysEqhTJ9saLIVEX-33" edge="1">
          <mxGeometry width="50" height="50" relative="1" as="geometry">
            <mxPoint x="820" y="250" as="sourcePoint" />
            <mxPoint x="790" y="260" as="targetPoint" />
            <Array as="points" />
          </mxGeometry>
        </mxCell>
        <mxCell id="k4-YEysEqhTJ9saLIVEX-46" value="faculty" style="whiteSpace=wrap;html=1;align=center;" parent="1" vertex="1">
          <mxGeometry x="60" y="350" width="100" height="40" as="geometry" />
        </mxCell>
        <mxCell id="k4-YEysEqhTJ9saLIVEX-47" value="faculty_Reg_no" style="ellipse;whiteSpace=wrap;html=1;align=center;fontStyle=4;" parent="1" vertex="1">
          <mxGeometry x="10" y="440" width="100" height="40" as="geometry" />
        </mxCell>
        <mxCell id="k4-YEysEqhTJ9saLIVEX-48" value="name" style="ellipse;whiteSpace=wrap;html=1;align=center;" parent="1" vertex="1">
          <mxGeometry x="260" y="290" width="100" height="40" as="geometry" />
        </mxCell>
        <mxCell id="k4-YEysEqhTJ9saLIVEX-51" value="user id" style="ellipse;whiteSpace=wrap;html=1;align=center;" parent="1" vertex="1">
          <mxGeometry x="130" y="430" width="100" height="40" as="geometry" />
        </mxCell>
        <mxCell id="k4-YEysEqhTJ9saLIVEX-52" value="" style="endArrow=none;html=1;rounded=0;" parent="1" edge="1">
          <mxGeometry width="50" height="50" relative="1" as="geometry">
            <mxPoint x="100" y="350" as="sourcePoint" />
            <mxPoint x="90" y="320" as="targetPoint" />
          </mxGeometry>
        </mxCell>
        <mxCell id="k4-YEysEqhTJ9saLIVEX-53" value="" style="endArrow=none;html=1;rounded=0;exitX=0.272;exitY=0.065;exitDx=0;exitDy=0;exitPerimeter=0;" parent="1" source="k4-YEysEqhTJ9saLIVEX-51" edge="1">
          <mxGeometry width="50" height="50" relative="1" as="geometry">
            <mxPoint x="150" y="420" as="sourcePoint" />
            <mxPoint x="140" y="390" as="targetPoint" />
          </mxGeometry>
        </mxCell>
        <mxCell id="k4-YEysEqhTJ9saLIVEX-54" value="" style="endArrow=none;html=1;rounded=0;exitX=0.5;exitY=0;exitDx=0;exitDy=0;" parent="1" source="k4-YEysEqhTJ9saLIVEX-47" edge="1">
          <mxGeometry width="50" height="50" relative="1" as="geometry">
            <mxPoint x="60" y="430" as="sourcePoint" />
            <mxPoint x="60" y="390" as="targetPoint" />
          </mxGeometry>
        </mxCell>
        <mxCell id="k4-YEysEqhTJ9saLIVEX-55" value="" style="endArrow=none;html=1;rounded=0;entryX=1;entryY=0.5;entryDx=0;entryDy=0;exitX=0.06;exitY=0.825;exitDx=0;exitDy=0;exitPerimeter=0;" parent="1" source="k4-YEysEqhTJ9saLIVEX-48" target="k4-YEysEqhTJ9saLIVEX-46" edge="1">
          <mxGeometry width="50" height="50" relative="1" as="geometry">
            <mxPoint x="210" y="350" as="sourcePoint" />
            <mxPoint x="180" y="360" as="targetPoint" />
            <Array as="points" />
          </mxGeometry>
        </mxCell>
        <mxCell id="k4-YEysEqhTJ9saLIVEX-56" value="classes" style="whiteSpace=wrap;html=1;align=center;" parent="1" vertex="1">
          <mxGeometry x="620" y="30" width="100" height="40" as="geometry" />
        </mxCell>
        <mxCell id="k4-YEysEqhTJ9saLIVEX-57" value="name" style="ellipse;whiteSpace=wrap;html=1;align=center;" parent="1" vertex="1">
          <mxGeometry x="740" y="10" width="100" height="40" as="geometry" />
        </mxCell>
        <mxCell id="k4-YEysEqhTJ9saLIVEX-58" value="class id" style="ellipse;whiteSpace=wrap;html=1;align=center;fontStyle=4;" parent="1" vertex="1">
          <mxGeometry x="740" y="90" width="100" height="40" as="geometry" />
        </mxCell>
        <mxCell id="k4-YEysEqhTJ9saLIVEX-59" value="" style="endArrow=none;html=1;rounded=0;" parent="1" edge="1">
          <mxGeometry width="50" height="50" relative="1" as="geometry">
            <mxPoint x="720" y="55" as="sourcePoint" />
            <mxPoint x="740" y="25" as="targetPoint" />
          </mxGeometry>
        </mxCell>
        <mxCell id="k4-YEysEqhTJ9saLIVEX-60" value="" style="endArrow=none;html=1;rounded=0;exitX=0.272;exitY=0.065;exitDx=0;exitDy=0;exitPerimeter=0;" parent="1" edge="1">
          <mxGeometry width="50" height="50" relative="1" as="geometry">
            <mxPoint x="740" y="113" as="sourcePoint" />
            <mxPoint x="723" y="70" as="targetPoint" />
          </mxGeometry>
        </mxCell>
        <mxCell id="k4-YEysEqhTJ9saLIVEX-62" value="attendance" style="whiteSpace=wrap;html=1;align=center;" parent="1" vertex="1">
          <mxGeometry x="670" y="460" width="100" height="40" as="geometry" />
        </mxCell>
        <mxCell id="k4-YEysEqhTJ9saLIVEX-63" value="a id" style="ellipse;whiteSpace=wrap;html=1;align=center;fontStyle=4;" parent="1" vertex="1">
          <mxGeometry x="620" y="550" width="100" height="40" as="geometry" />
        </mxCell>
        <mxCell id="k4-YEysEqhTJ9saLIVEX-64" value="class id" style="ellipse;whiteSpace=wrap;html=1;align=center;" parent="1" vertex="1">
          <mxGeometry x="870" y="400" width="100" height="40" as="geometry" />
        </mxCell>
        <mxCell id="k4-YEysEqhTJ9saLIVEX-65" value="student reg no" style="ellipse;whiteSpace=wrap;html=1;align=center;" parent="1" vertex="1">
          <mxGeometry x="740" y="400" width="100" height="40" as="geometry" />
        </mxCell>
        <mxCell id="k4-YEysEqhTJ9saLIVEX-66" value="status" style="ellipse;whiteSpace=wrap;html=1;align=center;" parent="1" vertex="1">
          <mxGeometry x="610" y="400" width="100" height="40" as="geometry" />
        </mxCell>
        <mxCell id="k4-YEysEqhTJ9saLIVEX-67" value="faculty reg no" style="ellipse;whiteSpace=wrap;html=1;align=center;" parent="1" vertex="1">
          <mxGeometry x="740" y="540" width="100" height="40" as="geometry" />
        </mxCell>
        <mxCell id="k4-YEysEqhTJ9saLIVEX-68" value="" style="endArrow=none;html=1;rounded=0;" parent="1" edge="1">
          <mxGeometry width="50" height="50" relative="1" as="geometry">
            <mxPoint x="710" y="460" as="sourcePoint" />
            <mxPoint x="700" y="430" as="targetPoint" />
          </mxGeometry>
        </mxCell>
        <mxCell id="k4-YEysEqhTJ9saLIVEX-69" value="" style="endArrow=none;html=1;rounded=0;exitX=0.272;exitY=0.065;exitDx=0;exitDy=0;exitPerimeter=0;" parent="1" source="k4-YEysEqhTJ9saLIVEX-67" edge="1">
          <mxGeometry width="50" height="50" relative="1" as="geometry">
            <mxPoint x="760" y="530" as="sourcePoint" />
            <mxPoint x="750" y="500" as="targetPoint" />
          </mxGeometry>
        </mxCell>
        <mxCell id="k4-YEysEqhTJ9saLIVEX-70" value="" style="endArrow=none;html=1;rounded=0;exitX=0.5;exitY=0;exitDx=0;exitDy=0;" parent="1" source="k4-YEysEqhTJ9saLIVEX-63" edge="1">
          <mxGeometry width="50" height="50" relative="1" as="geometry">
            <mxPoint x="670" y="540" as="sourcePoint" />
            <mxPoint x="670" y="500" as="targetPoint" />
          </mxGeometry>
        </mxCell>
        <mxCell id="k4-YEysEqhTJ9saLIVEX-71" value="" style="endArrow=none;html=1;rounded=0;" parent="1" edge="1">
          <mxGeometry width="50" height="50" relative="1" as="geometry">
            <mxPoint x="730" y="460" as="sourcePoint" />
            <mxPoint x="750" y="430" as="targetPoint" />
          </mxGeometry>
        </mxCell>
        <mxCell id="k4-YEysEqhTJ9saLIVEX-72" value="" style="endArrow=none;html=1;rounded=0;entryX=1;entryY=0.5;entryDx=0;entryDy=0;exitX=0.06;exitY=0.825;exitDx=0;exitDy=0;exitPerimeter=0;" parent="1" source="k4-YEysEqhTJ9saLIVEX-64" target="k4-YEysEqhTJ9saLIVEX-62" edge="1">
          <mxGeometry width="50" height="50" relative="1" as="geometry">
            <mxPoint x="820" y="460" as="sourcePoint" />
            <mxPoint x="790" y="470" as="targetPoint" />
            <Array as="points" />
          </mxGeometry>
        </mxCell>
        <mxCell id="k4-YEysEqhTJ9saLIVEX-73" value="a date" style="ellipse;whiteSpace=wrap;html=1;align=center;" parent="1" vertex="1">
          <mxGeometry x="840" y="490" width="100" height="40" as="geometry" />
        </mxCell>
        <mxCell id="k4-YEysEqhTJ9saLIVEX-74" value="" style="endArrow=none;html=1;rounded=0;exitX=0;exitY=0.5;exitDx=0;exitDy=0;entryX=1;entryY=0.75;entryDx=0;entryDy=0;" parent="1" source="k4-YEysEqhTJ9saLIVEX-73" target="k4-YEysEqhTJ9saLIVEX-62" edge="1">
          <mxGeometry width="50" height="50" relative="1" as="geometry">
            <mxPoint x="790" y="525" as="sourcePoint" />
            <mxPoint x="780" y="495" as="targetPoint" />
          </mxGeometry>
        </mxCell>
        <mxCell id="k4-YEysEqhTJ9saLIVEX-75" value="enrollment" style="whiteSpace=wrap;html=1;align=center;" parent="1" vertex="1">
          <mxGeometry x="80" y="640" width="100" height="40" as="geometry" />
        </mxCell>
        <mxCell id="k4-YEysEqhTJ9saLIVEX-76" value="enrollment id" style="ellipse;whiteSpace=wrap;html=1;align=center;fontStyle=4;" parent="1" vertex="1">
          <mxGeometry x="30" y="730" width="100" height="40" as="geometry" />
        </mxCell>
        <mxCell id="k4-YEysEqhTJ9saLIVEX-78" value="faculty reg no" style="ellipse;whiteSpace=wrap;html=1;align=center;" parent="1" vertex="1">
          <mxGeometry x="150" y="580" width="100" height="40" as="geometry" />
        </mxCell>
        <mxCell id="k4-YEysEqhTJ9saLIVEX-79" value="class id" style="ellipse;whiteSpace=wrap;html=1;align=center;" parent="1" vertex="1">
          <mxGeometry x="20" y="580" width="100" height="40" as="geometry" />
        </mxCell>
        <mxCell id="k4-YEysEqhTJ9saLIVEX-80" value="student reg no" style="ellipse;whiteSpace=wrap;html=1;align=center;" parent="1" vertex="1">
          <mxGeometry x="150" y="720" width="100" height="40" as="geometry" />
        </mxCell>
        <mxCell id="k4-YEysEqhTJ9saLIVEX-81" value="" style="endArrow=none;html=1;rounded=0;" parent="1" edge="1">
          <mxGeometry width="50" height="50" relative="1" as="geometry">
            <mxPoint x="120" y="640" as="sourcePoint" />
            <mxPoint x="110" y="610" as="targetPoint" />
          </mxGeometry>
        </mxCell>
        <mxCell id="k4-YEysEqhTJ9saLIVEX-82" value="" style="endArrow=none;html=1;rounded=0;exitX=0.272;exitY=0.065;exitDx=0;exitDy=0;exitPerimeter=0;" parent="1" source="k4-YEysEqhTJ9saLIVEX-80" edge="1">
          <mxGeometry width="50" height="50" relative="1" as="geometry">
            <mxPoint x="170" y="710" as="sourcePoint" />
            <mxPoint x="160" y="680" as="targetPoint" />
          </mxGeometry>
        </mxCell>
        <mxCell id="k4-YEysEqhTJ9saLIVEX-83" value="" style="endArrow=none;html=1;rounded=0;exitX=0.5;exitY=0;exitDx=0;exitDy=0;" parent="1" source="k4-YEysEqhTJ9saLIVEX-76" edge="1">
          <mxGeometry width="50" height="50" relative="1" as="geometry">
            <mxPoint x="80" y="720" as="sourcePoint" />
            <mxPoint x="80" y="680" as="targetPoint" />
          </mxGeometry>
        </mxCell>
        <mxCell id="k4-YEysEqhTJ9saLIVEX-85" value="equipment" style="whiteSpace=wrap;html=1;align=center;" parent="1" vertex="1">
          <mxGeometry x="650" y="720" width="100" height="40" as="geometry" />
        </mxCell>
        <mxCell id="k4-YEysEqhTJ9saLIVEX-86" value="eq id" style="ellipse;whiteSpace=wrap;html=1;align=center;fontStyle=4;" parent="1" vertex="1">
          <mxGeometry x="600" y="810" width="100" height="40" as="geometry" />
        </mxCell>
        <mxCell id="k4-YEysEqhTJ9saLIVEX-87" value="student reg no" style="ellipse;whiteSpace=wrap;html=1;align=center;" parent="1" vertex="1">
          <mxGeometry x="850" y="660" width="100" height="40" as="geometry" />
        </mxCell>
        <mxCell id="k4-YEysEqhTJ9saLIVEX-88" value="faculty reg no" style="ellipse;whiteSpace=wrap;html=1;align=center;" parent="1" vertex="1">
          <mxGeometry x="720" y="660" width="100" height="40" as="geometry" />
        </mxCell>
        <mxCell id="k4-YEysEqhTJ9saLIVEX-89" value="borrowed time" style="ellipse;whiteSpace=wrap;html=1;align=center;" parent="1" vertex="1">
          <mxGeometry x="590" y="660" width="100" height="40" as="geometry" />
        </mxCell>
        <mxCell id="k4-YEysEqhTJ9saLIVEX-90" value="eq name" style="ellipse;whiteSpace=wrap;html=1;align=center;" parent="1" vertex="1">
          <mxGeometry x="720" y="800" width="100" height="40" as="geometry" />
        </mxCell>
        <mxCell id="k4-YEysEqhTJ9saLIVEX-91" value="" style="endArrow=none;html=1;rounded=0;" parent="1" edge="1">
          <mxGeometry width="50" height="50" relative="1" as="geometry">
            <mxPoint x="690" y="720" as="sourcePoint" />
            <mxPoint x="680" y="690" as="targetPoint" />
          </mxGeometry>
        </mxCell>
        <mxCell id="k4-YEysEqhTJ9saLIVEX-92" value="" style="endArrow=none;html=1;rounded=0;exitX=0.272;exitY=0.065;exitDx=0;exitDy=0;exitPerimeter=0;" parent="1" source="k4-YEysEqhTJ9saLIVEX-90" edge="1">
          <mxGeometry width="50" height="50" relative="1" as="geometry">
            <mxPoint x="740" y="790" as="sourcePoint" />
            <mxPoint x="730" y="760" as="targetPoint" />
          </mxGeometry>
        </mxCell>
        <mxCell id="k4-YEysEqhTJ9saLIVEX-93" value="" style="endArrow=none;html=1;rounded=0;exitX=0.5;exitY=0;exitDx=0;exitDy=0;" parent="1" source="k4-YEysEqhTJ9saLIVEX-86" edge="1">
          <mxGeometry width="50" height="50" relative="1" as="geometry">
            <mxPoint x="650" y="800" as="sourcePoint" />
            <mxPoint x="650" y="760" as="targetPoint" />
          </mxGeometry>
        </mxCell>
        <mxCell id="k4-YEysEqhTJ9saLIVEX-94" value="" style="endArrow=none;html=1;rounded=0;" parent="1" edge="1">
          <mxGeometry width="50" height="50" relative="1" as="geometry">
            <mxPoint x="710" y="720" as="sourcePoint" />
            <mxPoint x="730" y="690" as="targetPoint" />
          </mxGeometry>
        </mxCell>
        <mxCell id="k4-YEysEqhTJ9saLIVEX-95" value="" style="endArrow=none;html=1;rounded=0;entryX=1;entryY=0.5;entryDx=0;entryDy=0;exitX=0.06;exitY=0.825;exitDx=0;exitDy=0;exitPerimeter=0;" parent="1" source="k4-YEysEqhTJ9saLIVEX-87" target="k4-YEysEqhTJ9saLIVEX-85" edge="1">
          <mxGeometry width="50" height="50" relative="1" as="geometry">
            <mxPoint x="800" y="720" as="sourcePoint" />
            <mxPoint x="770" y="730" as="targetPoint" />
            <Array as="points" />
          </mxGeometry>
        </mxCell>
        <mxCell id="k4-YEysEqhTJ9saLIVEX-96" value="returned time" style="ellipse;whiteSpace=wrap;html=1;align=center;" parent="1" vertex="1">
          <mxGeometry x="820" y="750" width="100" height="40" as="geometry" />
        </mxCell>
        <mxCell id="k4-YEysEqhTJ9saLIVEX-97" value="" style="endArrow=none;html=1;rounded=0;exitX=0;exitY=0.5;exitDx=0;exitDy=0;entryX=1;entryY=0.75;entryDx=0;entryDy=0;" parent="1" source="k4-YEysEqhTJ9saLIVEX-96" target="k4-YEysEqhTJ9saLIVEX-85" edge="1">
          <mxGeometry width="50" height="50" relative="1" as="geometry">
            <mxPoint x="770" y="785" as="sourcePoint" />
            <mxPoint x="760" y="755" as="targetPoint" />
          </mxGeometry>
        </mxCell>
        <mxCell id="k4-YEysEqhTJ9saLIVEX-98" value="marks" style="whiteSpace=wrap;html=1;align=center;" parent="1" vertex="1">
          <mxGeometry x="280" y="980" width="100" height="40" as="geometry" />
        </mxCell>
        <mxCell id="k4-YEysEqhTJ9saLIVEX-99" value="marks id" style="ellipse;whiteSpace=wrap;html=1;align=center;fontStyle=4;" parent="1" vertex="1">
          <mxGeometry x="230" y="1070" width="100" height="40" as="geometry" />
        </mxCell>
        <mxCell id="k4-YEysEqhTJ9saLIVEX-100" value="class id" style="ellipse;whiteSpace=wrap;html=1;align=center;" parent="1" vertex="1">
          <mxGeometry x="480" y="920" width="100" height="40" as="geometry" />
        </mxCell>
        <mxCell id="k4-YEysEqhTJ9saLIVEX-101" value="student reg no" style="ellipse;whiteSpace=wrap;html=1;align=center;" parent="1" vertex="1">
          <mxGeometry x="350" y="920" width="100" height="40" as="geometry" />
        </mxCell>
        <mxCell id="k4-YEysEqhTJ9saLIVEX-103" value="faculty reg no" style="ellipse;whiteSpace=wrap;html=1;align=center;" parent="1" vertex="1">
          <mxGeometry x="350" y="1060" width="100" height="40" as="geometry" />
        </mxCell>
        <mxCell id="k4-YEysEqhTJ9saLIVEX-104" value="" style="endArrow=none;html=1;rounded=0;" parent="1" edge="1">
          <mxGeometry width="50" height="50" relative="1" as="geometry">
            <mxPoint x="320" y="980" as="sourcePoint" />
            <mxPoint x="310" y="950" as="targetPoint" />
          </mxGeometry>
        </mxCell>
        <mxCell id="k4-YEysEqhTJ9saLIVEX-105" value="" style="endArrow=none;html=1;rounded=0;exitX=0.272;exitY=0.065;exitDx=0;exitDy=0;exitPerimeter=0;" parent="1" source="k4-YEysEqhTJ9saLIVEX-103" edge="1">
          <mxGeometry width="50" height="50" relative="1" as="geometry">
            <mxPoint x="370" y="1050" as="sourcePoint" />
            <mxPoint x="360" y="1020" as="targetPoint" />
          </mxGeometry>
        </mxCell>
        <mxCell id="k4-YEysEqhTJ9saLIVEX-106" value="" style="endArrow=none;html=1;rounded=0;exitX=0.5;exitY=0;exitDx=0;exitDy=0;" parent="1" source="k4-YEysEqhTJ9saLIVEX-99" edge="1">
          <mxGeometry width="50" height="50" relative="1" as="geometry">
            <mxPoint x="280" y="1060" as="sourcePoint" />
            <mxPoint x="280" y="1020" as="targetPoint" />
          </mxGeometry>
        </mxCell>
        <mxCell id="k4-YEysEqhTJ9saLIVEX-107" value="" style="endArrow=none;html=1;rounded=0;" parent="1" edge="1">
          <mxGeometry width="50" height="50" relative="1" as="geometry">
            <mxPoint x="340" y="980" as="sourcePoint" />
            <mxPoint x="360" y="950" as="targetPoint" />
          </mxGeometry>
        </mxCell>
        <mxCell id="k4-YEysEqhTJ9saLIVEX-108" value="" style="endArrow=none;html=1;rounded=0;entryX=1;entryY=0.5;entryDx=0;entryDy=0;exitX=0.06;exitY=0.825;exitDx=0;exitDy=0;exitPerimeter=0;" parent="1" source="k4-YEysEqhTJ9saLIVEX-100" target="k4-YEysEqhTJ9saLIVEX-98" edge="1">
          <mxGeometry width="50" height="50" relative="1" as="geometry">
            <mxPoint x="430" y="980" as="sourcePoint" />
            <mxPoint x="400" y="990" as="targetPoint" />
            <Array as="points" />
          </mxGeometry>
        </mxCell>
        <mxCell id="k4-YEysEqhTJ9saLIVEX-109" value="enrollment id" style="ellipse;whiteSpace=wrap;html=1;align=center;" parent="1" vertex="1">
          <mxGeometry x="450" y="1010" width="100" height="40" as="geometry" />
        </mxCell>
        <mxCell id="k4-YEysEqhTJ9saLIVEX-110" value="" style="endArrow=none;html=1;rounded=0;exitX=0;exitY=0.5;exitDx=0;exitDy=0;entryX=1;entryY=0.75;entryDx=0;entryDy=0;" parent="1" source="k4-YEysEqhTJ9saLIVEX-109" target="k4-YEysEqhTJ9saLIVEX-98" edge="1">
          <mxGeometry width="50" height="50" relative="1" as="geometry">
            <mxPoint x="400" y="1045" as="sourcePoint" />
            <mxPoint x="390" y="1015" as="targetPoint" />
          </mxGeometry>
        </mxCell>
        <mxCell id="k4-YEysEqhTJ9saLIVEX-111" value="marks" style="ellipse;shape=doubleEllipse;margin=3;whiteSpace=wrap;html=1;align=center;" parent="1" vertex="1">
          <mxGeometry x="240" y="910" width="100" height="40" as="geometry" />
        </mxCell>
        <mxCell id="k4-YEysEqhTJ9saLIVEX-112" value="email" style="ellipse;shape=doubleEllipse;margin=3;whiteSpace=wrap;html=1;align=center;" parent="1" vertex="1">
          <mxGeometry x="620" y="180" width="100" height="40" as="geometry" />
        </mxCell>
        <mxCell id="k4-YEysEqhTJ9saLIVEX-113" value="email" style="ellipse;shape=doubleEllipse;margin=3;whiteSpace=wrap;html=1;align=center;" parent="1" vertex="1">
          <mxGeometry x="20" y="280" width="100" height="40" as="geometry" />
        </mxCell>
        <mxCell id="k4-YEysEqhTJ9saLIVEX-114" value="phone" style="ellipse;shape=doubleEllipse;margin=3;whiteSpace=wrap;html=1;align=center;" parent="1" vertex="1">
          <mxGeometry x="730" y="190" width="100" height="40" as="geometry" />
        </mxCell>
        <mxCell id="k4-YEysEqhTJ9saLIVEX-115" value="phone" style="ellipse;shape=doubleEllipse;margin=3;whiteSpace=wrap;html=1;align=center;" parent="1" vertex="1">
          <mxGeometry x="140" y="280" width="100" height="40" as="geometry" />
        </mxCell>
        <mxCell id="k4-YEysEqhTJ9saLIVEX-116" value="" style="endArrow=none;html=1;rounded=0;" parent="1" edge="1">
          <mxGeometry width="50" height="50" relative="1" as="geometry">
            <mxPoint x="140" y="350" as="sourcePoint" />
            <mxPoint x="160" y="320" as="targetPoint" />
          </mxGeometry>
        </mxCell>
        <mxCell id="k4-YEysEqhTJ9saLIVEX-117" value="last name" style="ellipse;whiteSpace=wrap;html=1;align=center;" parent="1" vertex="1">
          <mxGeometry x="325" y="230" width="100" height="40" as="geometry" />
        </mxCell>
        <mxCell id="k4-YEysEqhTJ9saLIVEX-118" value="first name" style="ellipse;whiteSpace=wrap;html=1;align=center;" parent="1" vertex="1">
          <mxGeometry x="240" y="360" width="100" height="40" as="geometry" />
        </mxCell>
        <mxCell id="k4-YEysEqhTJ9saLIVEX-119" value="" style="endArrow=none;html=1;rounded=0;" parent="1" edge="1">
          <mxGeometry width="50" height="50" relative="1" as="geometry">
            <mxPoint x="290" y="360" as="sourcePoint" />
            <mxPoint x="310" y="330" as="targetPoint" />
          </mxGeometry>
        </mxCell>
        <mxCell id="k4-YEysEqhTJ9saLIVEX-120" value="" style="endArrow=none;html=1;rounded=0;" parent="1" edge="1">
          <mxGeometry width="50" height="50" relative="1" as="geometry">
            <mxPoint x="340" y="300" as="sourcePoint" />
            <mxPoint x="360" y="270" as="targetPoint" />
          </mxGeometry>
        </mxCell>
        <mxCell id="k4-YEysEqhTJ9saLIVEX-121" value="last name" style="ellipse;whiteSpace=wrap;html=1;align=center;" parent="1" vertex="1">
          <mxGeometry x="890" y="120" width="100" height="40" as="geometry" />
        </mxCell>
        <mxCell id="k4-YEysEqhTJ9saLIVEX-122" value="" style="endArrow=none;html=1;rounded=0;" parent="1" edge="1">
          <mxGeometry width="50" height="50" relative="1" as="geometry">
            <mxPoint x="905" y="190" as="sourcePoint" />
            <mxPoint x="925" y="160" as="targetPoint" />
          </mxGeometry>
        </mxCell>
        <mxCell id="k4-YEysEqhTJ9saLIVEX-123" value="first name" style="ellipse;whiteSpace=wrap;html=1;align=center;" parent="1" vertex="1">
          <mxGeometry x="850" y="260" width="100" height="40" as="geometry" />
        </mxCell>
        <mxCell id="k4-YEysEqhTJ9saLIVEX-124" value="" style="endArrow=none;html=1;rounded=0;" parent="1" edge="1">
          <mxGeometry width="50" height="50" relative="1" as="geometry">
            <mxPoint x="900" y="260" as="sourcePoint" />
            <mxPoint x="920" y="230" as="targetPoint" />
          </mxGeometry>
        </mxCell>
        <mxCell id="k4-YEysEqhTJ9saLIVEX-125" value="student registration" style="shape=rhombus;perimeter=rhombusPerimeter;whiteSpace=wrap;html=1;align=center;" parent="1" vertex="1">
          <mxGeometry x="380" y="80" width="120" height="60" as="geometry" />
        </mxCell>
        <mxCell id="k4-YEysEqhTJ9saLIVEX-126" value="" style="endArrow=none;html=1;rounded=0;entryX=0;entryY=0.5;entryDx=0;entryDy=0;" parent="1" target="k4-YEysEqhTJ9saLIVEX-125" edge="1">
          <mxGeometry relative="1" as="geometry">
            <mxPoint x="160" y="109.5" as="sourcePoint" />
            <mxPoint x="320" y="109.5" as="targetPoint" />
          </mxGeometry>
        </mxCell>
        <mxCell id="k4-YEysEqhTJ9saLIVEX-129" value="" style="endArrow=none;html=1;rounded=0;entryX=0.25;entryY=0;entryDx=0;entryDy=0;" parent="1" target="k4-YEysEqhTJ9saLIVEX-33" edge="1">
          <mxGeometry relative="1" as="geometry">
            <mxPoint x="435" y="140" as="sourcePoint" />
            <mxPoint x="690" y="241" as="targetPoint" />
          </mxGeometry>
        </mxCell>
        <mxCell id="k4-YEysEqhTJ9saLIVEX-131" value="faculty registration" style="shape=rhombus;perimeter=rhombusPerimeter;whiteSpace=wrap;html=1;align=center;" parent="1" vertex="1">
          <mxGeometry x="90" y="210" width="80" height="40" as="geometry" />
        </mxCell>
        <mxCell id="k4-YEysEqhTJ9saLIVEX-132" value="" style="endArrow=none;html=1;rounded=0;entryX=0.5;entryY=0;entryDx=0;entryDy=0;" parent="1" target="k4-YEysEqhTJ9saLIVEX-131" edge="1" source="Ha1K6CG93bpVKYq_0kxe-5">
          <mxGeometry relative="1" as="geometry">
            <mxPoint x="119" y="120" as="sourcePoint" />
            <mxPoint x="119" y="190" as="targetPoint" />
          </mxGeometry>
        </mxCell>
        <mxCell id="k4-YEysEqhTJ9saLIVEX-133" value="" style="endArrow=none;html=1;rounded=0;entryX=0.604;entryY=-0.085;entryDx=0;entryDy=0;entryPerimeter=0;" parent="1" target="k4-YEysEqhTJ9saLIVEX-46" edge="1">
          <mxGeometry relative="1" as="geometry">
            <mxPoint x="129" y="250" as="sourcePoint" />
            <mxPoint x="140" y="340" as="targetPoint" />
          </mxGeometry>
        </mxCell>
        <mxCell id="k4-YEysEqhTJ9saLIVEX-134" value="enrollment" style="shape=rhombus;perimeter=rhombusPerimeter;whiteSpace=wrap;html=1;align=center;" parent="1" vertex="1">
          <mxGeometry x="410" y="310" width="120" height="60" as="geometry" />
        </mxCell>
        <mxCell id="k4-YEysEqhTJ9saLIVEX-135" value="" style="endArrow=none;html=1;rounded=0;exitX=0.5;exitY=1;exitDx=0;exitDy=0;entryX=0.5;entryY=0;entryDx=0;entryDy=0;" parent="1" source="k4-YEysEqhTJ9saLIVEX-56" target="k4-YEysEqhTJ9saLIVEX-134" edge="1">
          <mxGeometry relative="1" as="geometry">
            <mxPoint x="445" y="150" as="sourcePoint" />
            <mxPoint x="470" y="300" as="targetPoint" />
          </mxGeometry>
        </mxCell>
        <mxCell id="k4-YEysEqhTJ9saLIVEX-136" value="" style="endArrow=none;html=1;rounded=0;entryX=0.5;entryY=0;entryDx=0;entryDy=0;" parent="1" edge="1">
          <mxGeometry relative="1" as="geometry">
            <mxPoint x="670" y="270" as="sourcePoint" />
            <mxPoint x="490" y="320" as="targetPoint" />
          </mxGeometry>
        </mxCell>
        <mxCell id="k4-YEysEqhTJ9saLIVEX-137" value="" style="endArrow=none;html=1;rounded=0;entryX=0.5;entryY=0;entryDx=0;entryDy=0;exitX=0;exitY=0.5;exitDx=0;exitDy=0;" parent="1" source="k4-YEysEqhTJ9saLIVEX-134" edge="1">
          <mxGeometry relative="1" as="geometry">
            <mxPoint x="330" y="335" as="sourcePoint" />
            <mxPoint x="150" y="385" as="targetPoint" />
          </mxGeometry>
        </mxCell>
        <mxCell id="k4-YEysEqhTJ9saLIVEX-138" value="" style="endArrow=none;html=1;rounded=0;exitX=0.5;exitY=1;exitDx=0;exitDy=0;entryX=1;entryY=1;entryDx=0;entryDy=0;" parent="1" target="k4-YEysEqhTJ9saLIVEX-75" edge="1">
          <mxGeometry relative="1" as="geometry">
            <mxPoint x="470" y="370" as="sourcePoint" />
            <mxPoint x="270" y="610" as="targetPoint" />
          </mxGeometry>
        </mxCell>
        <mxCell id="k4-YEysEqhTJ9saLIVEX-139" value="student attendance" style="shape=rhombus;perimeter=rhombusPerimeter;whiteSpace=wrap;html=1;align=center;" parent="1" vertex="1">
          <mxGeometry x="370" y="620" width="120" height="60" as="geometry" />
        </mxCell>
        <mxCell id="k4-YEysEqhTJ9saLIVEX-140" value="" style="endArrow=none;html=1;rounded=0;exitX=0;exitY=0.5;exitDx=0;exitDy=0;entryX=1;entryY=0.25;entryDx=0;entryDy=0;" parent="1" source="k4-YEysEqhTJ9saLIVEX-139" target="k4-YEysEqhTJ9saLIVEX-75" edge="1">
          <mxGeometry relative="1" as="geometry">
            <mxPoint x="480" y="380" as="sourcePoint" />
            <mxPoint x="190" y="690" as="targetPoint" />
          </mxGeometry>
        </mxCell>
        <mxCell id="k4-YEysEqhTJ9saLIVEX-141" value="" style="endArrow=none;html=1;rounded=0;exitX=0;exitY=0.5;exitDx=0;exitDy=0;entryX=0.5;entryY=0;entryDx=0;entryDy=0;" parent="1" source="k4-YEysEqhTJ9saLIVEX-62" target="k4-YEysEqhTJ9saLIVEX-139" edge="1">
          <mxGeometry relative="1" as="geometry">
            <mxPoint x="580" y="520" as="sourcePoint" />
            <mxPoint x="400" y="510" as="targetPoint" />
          </mxGeometry>
        </mxCell>
        <mxCell id="k4-YEysEqhTJ9saLIVEX-142" value="equipment" style="shape=rhombus;perimeter=rhombusPerimeter;whiteSpace=wrap;html=1;align=center;" parent="1" vertex="1">
          <mxGeometry x="365" y="490" width="120" height="60" as="geometry" />
        </mxCell>
        <mxCell id="k4-YEysEqhTJ9saLIVEX-143" value="" style="endArrow=none;html=1;rounded=0;exitX=0;exitY=0.5;exitDx=0;exitDy=0;entryX=1;entryY=1;entryDx=0;entryDy=0;" parent="1" source="k4-YEysEqhTJ9saLIVEX-142" target="k4-YEysEqhTJ9saLIVEX-46" edge="1">
          <mxGeometry relative="1" as="geometry">
            <mxPoint x="365" y="419.5" as="sourcePoint" />
            <mxPoint x="175" y="419.5" as="targetPoint" />
          </mxGeometry>
        </mxCell>
        <mxCell id="k4-YEysEqhTJ9saLIVEX-144" value="" style="endArrow=none;html=1;rounded=0;exitX=0;exitY=1;exitDx=0;exitDy=0;entryX=0.5;entryY=0;entryDx=0;entryDy=0;" parent="1" source="k4-YEysEqhTJ9saLIVEX-33" target="k4-YEysEqhTJ9saLIVEX-142" edge="1">
          <mxGeometry relative="1" as="geometry">
            <mxPoint x="545" y="480" as="sourcePoint" />
            <mxPoint x="340" y="350" as="targetPoint" />
          </mxGeometry>
        </mxCell>
        <mxCell id="k4-YEysEqhTJ9saLIVEX-145" value="" style="endArrow=none;html=1;rounded=0;exitX=0;exitY=0;exitDx=0;exitDy=0;entryX=1;entryY=0.5;entryDx=0;entryDy=0;" parent="1" source="k4-YEysEqhTJ9saLIVEX-85" target="k4-YEysEqhTJ9saLIVEX-142" edge="1">
          <mxGeometry relative="1" as="geometry">
            <mxPoint x="680" y="300" as="sourcePoint" />
            <mxPoint x="435" y="500" as="targetPoint" />
          </mxGeometry>
        </mxCell>
        <mxCell id="k4-YEysEqhTJ9saLIVEX-146" value="marks" style="shape=rhombus;perimeter=rhombusPerimeter;whiteSpace=wrap;html=1;align=center;" parent="1" vertex="1">
          <mxGeometry x="70" y="900" width="120" height="60" as="geometry" />
        </mxCell>
        <mxCell id="k4-YEysEqhTJ9saLIVEX-147" value="" style="endArrow=none;html=1;rounded=0;exitX=0.5;exitY=0;exitDx=0;exitDy=0;entryX=0.5;entryY=1;entryDx=0;entryDy=0;" parent="1" source="k4-YEysEqhTJ9saLIVEX-146" target="k4-YEysEqhTJ9saLIVEX-75" edge="1">
          <mxGeometry relative="1" as="geometry">
            <mxPoint x="285" y="819.5" as="sourcePoint" />
            <mxPoint x="95" y="819.5" as="targetPoint" />
          </mxGeometry>
        </mxCell>
        <mxCell id="k4-YEysEqhTJ9saLIVEX-148" value="" style="endArrow=none;html=1;rounded=0;exitX=0;exitY=0.5;exitDx=0;exitDy=0;entryX=1;entryY=0.5;entryDx=0;entryDy=0;" parent="1" source="k4-YEysEqhTJ9saLIVEX-98" target="k4-YEysEqhTJ9saLIVEX-146" edge="1">
          <mxGeometry relative="1" as="geometry">
            <mxPoint x="149" y="1080" as="sourcePoint" />
            <mxPoint x="149" y="860" as="targetPoint" />
          </mxGeometry>
        </mxCell>
        <mxCell id="Ha1K6CG93bpVKYq_0kxe-2" value="1" style="text;html=1;strokeColor=none;fillColor=none;align=center;verticalAlign=middle;whiteSpace=wrap;rounded=0;" vertex="1" parent="1">
          <mxGeometry x="320" y="85" width="60" height="30" as="geometry" />
        </mxCell>
        <mxCell id="Ha1K6CG93bpVKYq_0kxe-3" value="1" style="text;html=1;strokeColor=none;fillColor=none;align=center;verticalAlign=middle;whiteSpace=wrap;rounded=0;" vertex="1" parent="1">
          <mxGeometry x="480" y="140" width="60" height="30" as="geometry" />
        </mxCell>
        <mxCell id="Ha1K6CG93bpVKYq_0kxe-4" value="1" style="text;html=1;strokeColor=none;fillColor=none;align=center;verticalAlign=middle;whiteSpace=wrap;rounded=0;" vertex="1" parent="1">
          <mxGeometry x="100" y="260" width="60" height="30" as="geometry" />
        </mxCell>
        <mxCell id="Ha1K6CG93bpVKYq_0kxe-6" value="" style="endArrow=none;html=1;rounded=0;entryX=0.5;entryY=0;entryDx=0;entryDy=0;" edge="1" parent="1" target="Ha1K6CG93bpVKYq_0kxe-5">
          <mxGeometry relative="1" as="geometry">
            <mxPoint x="119" y="120" as="sourcePoint" />
            <mxPoint x="130" y="210" as="targetPoint" />
          </mxGeometry>
        </mxCell>
        <mxCell id="Ha1K6CG93bpVKYq_0kxe-5" value="1" style="text;html=1;strokeColor=none;fillColor=none;align=center;verticalAlign=middle;whiteSpace=wrap;rounded=0;" vertex="1" parent="1">
          <mxGeometry x="90" y="140" width="60" height="30" as="geometry" />
        </mxCell>
      </root>
    </mxGraphModel>
  </diagram>
</mxfile>
